<svg xmlns="http://www.w3.org/2000/svg" width="200" height="200" viewBox="0 0 200 200">
  <!-- Hjälm (båge) -->
  <path d="M20 120 Q20 50 100 40 Q180 50 180 120 L180 110 Q180 30 100 15 Q20 30 20 110 Z" fill="#ff4444"/>
  <!-- Vänster vinge på hjälm -->
  <path d="M20 110 L0 70 L15 65 L25 90 Z" fill="#ff6666"/>
  <!-- Höger vinge på hjälm -->
  <path d="M180 110 L200 70 L185 65 L175 90 Z" fill="#ff6666"/>
  <!-- Ansikte -->
  <ellipse cx="100" cy="125" rx="55" ry="50" fill="#ffdbac"/>
  <!-- Ögon -->
  <ellipse cx="80" cy="115" rx="8" ry="9" fill="white"/>
  <ellipse cx="120" cy="115" rx="8" ry="9" fill="white"/>
  <circle cx="82" cy="117" r="5" fill="#222"/>
  <circle cx="122" cy="117" r="5" fill="#222"/>
  <!-- Ögonbryn -->
  <line x1="68" y1="105" x2="92" y2="108" stroke="#cc3333" stroke-width="3" stroke-linecap="round"/>
  <line x1="132" y1="105" x2="108" y2="108" stroke="#cc3333" stroke-width="3" stroke-linecap="round"/>
  <!-- Skägg -->
  <path d="M60 140 Q65 175 100 185 Q135 175 140 140 Q120 155 100 158 Q80 155 60 140 Z" fill="#cc3333"/>
  <!-- Mun under skägget (leende) -->
  <path d="M80 150 Q100 165 120 150" fill="none" stroke="#6b3a2a" stroke-width="2.5" stroke-linecap="round"/>
  <!-- BJÖRNTRYCK - Mjölnir-symbol på pannan -->
  <path d="M95 90 L105 90 L105 100 L95 100 Z" fill="#ffcc00"/>
  <path d="M90 88 L110 88 L110 90 L90 90 Z" fill="#ffcc00"/>
  <path d="M90 100 L110 100 L110 102 L90 102 Z" fill="#ffcc00"/>
  <path d="M98 82 L102 82 L102 88 L98 88 Z" fill="#ffcc00"/>
</svg>
